<svg xmlns="http://www.w3.org/2000/svg" viewBox="0 0 1792 1024" role="img"><defs><linearGradient id="bg" x1="0" x2="1" y1="0" y2="1"><stop offset="0" stop-color="#fff5d8"/><stop offset=".6" stop-color="#ead8aa"/><stop offset="1" stop-color="#bba76d"/></linearGradient><pattern id="grain" width="72" height="72" patternUnits="userSpaceOnUse"><circle cx="13" cy="17" r="1.4" fill="#102033" opacity=".08"/><circle cx="51" cy="29" r="1.1" fill="#b87926" opacity=".14"/><circle cx="31" cy="61" r="1" fill="#fffaf0" opacity=".2"/></pattern></defs><rect width="1792" height="1024" fill="url(#bg)"/><rect width="1792" height="1024" fill="url(#grain)" opacity=".75"/><path d="M0 620 C240 560 390 640 590 585 C840 515 1015 640 1220 565 C1455 478 1580 545 1792 490 L1792 1024 L0 1024 Z" fill="#efe0b6" opacity=".82"/><path d="M0 736 C250 665 405 760 615 705 C860 640 1005 765 1228 702 C1452 638 1560 690 1792 635 L1792 1024 L0 1024 Z" fill="#c8ba8c" opacity=".82"/><path d="M0 805 C250 740 430 845 655 785 C855 732 1030 850 1245 790 C1470 725 1600 780 1792 730 L1792 1024 L0 1024 Z" fill="#233f52" opacity=".74"/><path d="M0 912 C235 852 430 930 640 890 C830 850 990 940 1210 888 C1438 832 1580 875 1792 835 L1792 1024 L0 1024 Z" fill="#7f8469" opacity=".72"/><g transform="translate(896 470)"><circle r="250" fill="#fff2bf" opacity=".22"/><circle r="190" fill="#fff2bf" opacity=".25"/><ellipse rx="420" ry="118" fill="none" stroke="#102033" stroke-width="12" opacity=".88"/><ellipse rx="345" ry="88" fill="none" stroke="#102033" stroke-width="7" opacity=".8"/><ellipse rx="300" ry="74" fill="none" stroke="#b87926" stroke-width="5" opacity=".8"/><circle r="165" fill="#102033" opacity=".92"/><circle r="94" fill="#050910"/><circle r="190" fill="none" stroke="#b87926" stroke-width="6" opacity=".76"/><circle r="55" fill="#000"/><circle cx="66" cy="8" r="17" fill="#c99035"/></g><g fill="none" stroke-linecap="round" opacity=".58"><path d="M210 302 C520 145 935 155 1275 320 C1450 405 1570 522 1650 648" stroke="#fffaf0" stroke-width="4"/><path d="M292 390 C590 250 930 270 1210 390 C1405 473 1510 565 1590 660" stroke="#b87926" stroke-width="3"/><path d="M260 610 C570 510 865 535 1120 625 C1365 712 1545 728 1700 690" stroke="#fffaf0" stroke-width="3"/><path d="M420 735 C680 655 900 695 1115 770 C1320 840 1500 850 1660 805" stroke="#fffaf0" stroke-width="3" opacity=".7"/></g><g opacity=".95"><circle cx="350" cy="260" r="19" fill="#9aa08f"/><circle cx="462" cy="375" r="22" fill="#102033"/><circle cx="555" cy="335" r="20" fill="#c99035"/><circle cx="785" cy="235" r="18" fill="#c99035"/><circle cx="1210" cy="225" r="25" fill="#9aa08f"/><circle cx="1395" cy="320" r="22" fill="#102033"/><circle cx="1500" cy="570" r="22" fill="#9aa08f"/><circle cx="1320" cy="775" r="20" fill="#c99035"/><circle cx="590" cy="760" r="25" fill="#fffaf0"/><circle cx="410" cy="790" r="28" fill="#fffaf0"/><path d="M330 488 l35 60 h-70z" fill="#b87926"/><path d="M1430 372 l30 52 h-60z" fill="#9aa08f"/><path d="M1508 720 l31 55 h-62z" fill="#fffaf0"/></g><g fill="none" stroke="#102033" stroke-opacity=".18" stroke-width="2"><path d="M350 260 L555 335 L462 375 L590 760 L1320 775"/><path d="M785 235 L1210 225 L1395 320 L1500 570"/></g><g transform="translate(1230 330)" opacity=".72"><rect x="0" y="0" width="235" height="330" rx="10" fill="#fffaf0" opacity=".16" stroke="#fffaf0" stroke-width="4"/><path d="M38 55 H200 M38 92 H200 M38 129 H200 M38 166 H200 M38 203 H200 M38 240 H200 M38 277 H200" stroke="#fffaf0" stroke-width="2" opacity=".65"/></g><g opacity=".72"><path d="M205 690 v-170" stroke="#173e46" stroke-width="8"/><ellipse cx="178" cy="545" rx="43" ry="13" fill="#66705b"/><ellipse cx="232" cy="575" rx="42" ry="13" fill="#66705b"/><ellipse cx="178" cy="610" rx="42" ry="13" fill="#66705b"/><ellipse cx="232" cy="642" rx="42" ry="13" fill="#66705b"/><path d="M1535 740 v-165" stroke="#173e46" stroke-width="8"/><ellipse cx="1505" cy="600" rx="43" ry="13" fill="#66705b"/><ellipse cx="1564" cy="632" rx="42" ry="13" fill="#66705b"/><ellipse cx="1505" cy="670" rx="42" ry="13" fill="#66705b"/><ellipse cx="1564" cy="706" rx="42" ry="13" fill="#66705b"/></g></svg>